<svg width="17" height="16" viewBox="0 0 17 16" fill="none" xmlns="http://www.w3.org/2000/svg">
<path fill-rule="evenodd" clip-rule="evenodd" d="M0 7.89245C0 8.18071 0.11451 8.45716 0.318339 8.66099C0.522167 8.86482 0.798618 8.97933 1.08688 8.97933H13.2875L8.62042 13.6442C8.41633 13.8483 8.30168 14.1251 8.30168 14.4137C8.30168 14.7023 8.41633 14.9791 8.62042 15.1832C8.82451 15.3873 9.10131 15.502 9.38993 15.502C9.67855 15.502 9.95535 15.3873 10.1594 15.1832L16.6807 8.66196C16.7819 8.561 16.8622 8.44106 16.917 8.30901C16.9718 8.17697 17 8.03541 17 7.89245C17 7.74949 16.9718 7.60793 16.917 7.47589C16.8622 7.34384 16.7819 7.2239 16.6807 7.12294L10.1594 0.601688C9.95535 0.397602 9.67855 0.282949 9.38993 0.282949C9.10131 0.282949 8.82451 0.397602 8.62042 0.601688C8.41633 0.805775 8.30168 1.08257 8.30168 1.3712C8.30168 1.65982 8.41633 1.93662 8.62042 2.14071L13.2875 6.80558H1.08688C0.798618 6.80558 0.522167 6.92008 0.318339 7.12391C0.11451 7.32774 0 7.60419 0 7.89245Z" fill="#828282"/>
</svg>
