<svg width="31" height="29" viewBox="0 0 31 29" fill="none" xmlns="http://www.w3.org/2000/svg">
<path fill-rule="evenodd" clip-rule="evenodd" d="M30.0586 6.75457C29.7909 6.29077 29.4076 5.90427 28.9461 5.63276C28.4845 5.36124 27.9604 5.214 27.425 5.20538H7.59531L6.69678 1.7042C6.60599 1.36622 6.40345 1.06894 6.12214 0.860772C5.84084 0.652604 5.49733 0.545813 5.14758 0.557793H2.04919C1.63832 0.557793 1.24428 0.721011 0.953748 1.01154C0.663218 1.30207 0.5 1.69612 0.5 2.10699C0.5 2.51786 0.663218 2.9119 0.953748 3.20243C1.24428 3.49296 1.63832 3.65618 2.04919 3.65618H3.97019L8.24597 19.5509C8.33675 19.8889 8.53929 20.1862 8.8206 20.3943C9.10191 20.6025 9.44541 20.7093 9.79516 20.6973H23.7379C24.024 20.6964 24.3043 20.6164 24.5476 20.466C24.791 20.3156 24.988 20.1007 25.1167 19.8453L30.198 9.68255C30.4183 9.22091 30.5208 8.71193 30.4965 8.20103C30.4722 7.69012 30.3217 7.19319 30.0586 6.75457ZM22.7774 17.5989H10.9726L8.44737 8.30376H27.425L22.7774 17.5989ZM9.02057 28.4431C10.304 28.4431 11.3444 27.4027 11.3444 26.1193C11.3444 24.8359 10.304 23.7955 9.02057 23.7955C7.73718 23.7955 6.69678 24.8359 6.69678 26.1193C6.69678 27.4027 7.73718 28.4431 9.02057 28.4431ZM26.8363 26.1193C26.8363 27.4027 25.7959 28.4431 24.5125 28.4431C23.2291 28.4431 22.1887 27.4027 22.1887 26.1193C22.1887 24.8359 23.2291 23.7955 24.5125 23.7955C25.7959 23.7955 26.8363 24.8359 26.8363 26.1193Z" fill="white"/>
</svg>
