<svg width="24" height="23" viewBox="0 0 24 23" fill="none" xmlns="http://www.w3.org/2000/svg">
<path d="M0.75 7.04447L0.75 7.04434C0.74987 6.28285 0.901522 5.52898 1.19609 4.82677C1.49067 4.12457 1.92225 3.48812 2.46562 2.95463C3.00899 2.42114 3.65324 2.00131 4.36073 1.71967C5.06822 1.43803 5.82476 1.30024 6.58611 1.31434L6.59505 1.3145L6.60398 1.31446C7.51646 1.30961 8.41954 1.49875 9.25339 1.86935C10.0872 2.23995 10.8328 2.78353 11.4406 3.46408L12 4.09034L12.5594 3.46408C13.1672 2.78353 13.9128 2.23995 14.7466 1.86935C15.5805 1.49875 16.4835 1.30961 17.396 1.31446L17.405 1.3145L17.4139 1.31434C18.1752 1.30024 18.9318 1.43803 19.6393 1.71967L19.9167 1.02285L19.6393 1.71967C20.3468 2.00131 20.991 2.42114 21.5344 2.95463C22.0778 3.48812 22.5093 4.12457 22.8039 4.82677C23.0985 5.52898 23.2501 6.28285 23.25 7.04434V7.04447C23.25 9.95316 21.5148 12.5896 19.0949 15.0486C17.8946 16.2683 16.5548 17.4158 15.231 18.5071C14.8534 18.8184 14.4753 19.1265 14.1021 19.4307C13.37 20.0274 12.6567 20.6087 12.0024 21.1688C11.3174 20.5772 10.5676 19.9642 9.79889 19.3356C9.45944 19.0581 9.1163 18.7775 8.77339 18.4944C7.44941 17.4014 6.10917 16.2553 4.9081 15.0376C2.48677 12.5829 0.75 9.95481 0.75 7.04447Z" stroke="#828282" stroke-width="1.5"/>
</svg>
