<svg width="36" height="36" viewBox="0 0 36 36" fill="none" xmlns="http://www.w3.org/2000/svg">
<circle cx="18" cy="18" r="18" fill="#FF9C00"/>
<path d="M26.5714 26.5714L22.7263 22.7194M24.8571 17.5714C24.8571 19.5037 24.0895 21.3568 22.7232 22.7231C21.3569 24.0895 19.5037 24.8571 17.5714 24.8571C15.6391 24.8571 13.786 24.0895 12.4196 22.7231C11.0533 21.3568 10.2857 19.5037 10.2857 17.5714C10.2857 15.6391 11.0533 13.7859 12.4196 12.4196C13.786 11.0532 15.6391 10.2856 17.5714 10.2856C19.5037 10.2856 21.3569 11.0532 22.7232 12.4196C24.0895 13.7859 24.8571 15.6391 24.8571 17.5714V17.5714Z" stroke="white" stroke-width="2" stroke-linecap="round"/>
</svg>
