<svg width="17" height="16" viewBox="0 0 17 16" fill="none" xmlns="http://www.w3.org/2000/svg">
<path d="M15.9829 5.66442L11.1864 4.96733L9.04222 0.620451C8.98365 0.501436 8.88731 0.405091 8.76829 0.346528C8.46981 0.199176 8.1071 0.321969 7.95786 0.620451L5.8137 4.96733L1.01721 5.66442C0.884974 5.68331 0.76407 5.74565 0.671503 5.8401C0.559595 5.95513 0.497928 6.10987 0.500053 6.27034C0.502179 6.4308 0.567922 6.58386 0.682838 6.69588L4.15316 10.0793L3.33328 14.8569C3.31405 14.968 3.32635 15.0823 3.36878 15.1868C3.41121 15.2913 3.48207 15.3819 3.57333 15.4481C3.66459 15.5144 3.77259 15.5538 3.88509 15.5618C3.9976 15.5699 4.1101 15.5462 4.20983 15.4935L8.50004 13.2379L12.7902 15.4935C12.9074 15.5559 13.0434 15.5767 13.1737 15.554C13.5024 15.4973 13.7235 15.1856 13.6668 14.8569L12.8469 10.0793L16.3172 6.69588C16.4117 6.60331 16.474 6.48241 16.4929 6.35017C16.5439 6.01957 16.3135 5.71353 15.9829 5.66442Z" fill="#FFC700"/>
</svg>
