<svg width="85" height="86" viewBox="0 0 85 86" fill="none" xmlns="http://www.w3.org/2000/svg">
<circle cx="42.5" cy="43.3428" r="42.5" fill="#F2F2F2"/>
<g clip-path="url(#clip0_705_2106)">
<path fill-rule="evenodd" clip-rule="evenodd" d="M48.5946 33.1107C48.8919 33.1107 49.0405 33.1107 49.1892 33.1107C49.1892 33.2587 49.3378 33.4067 49.3378 33.4067C49.3378 33.5548 49.4865 33.7028 49.4865 33.9988C49.4865 34.1469 49.3378 34.2949 49.3378 34.4429C49.3378 34.591 49.1892 34.591 49.1892 34.739C49.0405 34.739 48.7432 34.739 48.5946 34.739H44.7297C44.5811 34.739 44.2838 34.739 44.1351 34.591C43.9865 34.4429 43.9865 34.1469 43.9865 33.9988C43.9865 33.5548 43.9865 33.2587 44.2838 32.9626C44.5811 32.6666 44.8784 32.3705 45.1757 32.2225C45.473 32.0745 45.7703 31.7784 46.2162 31.6304C46.5135 31.4824 46.8108 31.1863 47.1081 30.8902C47.2568 30.7422 47.4054 30.4462 47.4054 30.1501C47.4054 30.0021 47.4054 30.0021 47.4054 29.854C47.2568 29.706 47.2568 29.706 47.2568 29.558C47.1081 29.558 47.1081 29.4099 46.9595 29.4099C46.8108 29.4099 46.6622 29.2619 46.5135 29.2619C46.2162 29.2619 46.0676 29.4099 45.9189 29.558C45.7703 29.706 45.6216 29.854 45.6216 30.0021V30.1501V30.2981C45.6216 30.4462 45.6216 30.5942 45.6216 30.5942C45.6216 30.7422 45.6216 30.7422 45.473 30.8902C45.473 31.0383 45.1757 31.0383 44.7297 31.0383C44.2838 31.0383 43.9865 30.8902 43.9865 30.7422C43.9865 30.5942 43.9865 30.4462 43.9865 30.1501C43.9865 29.558 44.1351 28.9659 44.5811 28.3737C45.1757 27.9297 45.7703 27.6336 46.5135 27.6336C47.2568 27.6336 48 27.9297 48.4459 28.3737C48.8919 28.9659 49.1892 29.558 49.1892 30.2981C49.1892 30.5942 49.0405 31.0383 48.8919 31.3343C48.7432 31.6304 48.5946 31.9264 48.2973 32.0745C47.8513 32.5186 47.4054 32.8146 47.1081 32.9626L46.8108 33.1107H48.5946ZM39.6757 40.5121V26.5974C39.6757 25.8573 39.973 25.2651 40.4189 24.8211C40.8649 24.2289 41.4595 23.9329 42.2027 23.9329H67.3243C68.0676 23.9329 68.6622 24.2289 69.1081 24.8211C69.7027 25.2651 70 25.8573 70 26.5974V36.0713C70 36.8114 69.7027 37.5515 69.1081 37.9956C68.6622 38.4397 68.0676 38.7358 67.3243 38.7358H44.7297C44.5811 38.7358 44.5811 38.7358 44.4324 38.8838C44.2838 38.8838 44.2838 38.8838 44.1351 39.0318L42.2027 41.4003V41.5483C42.0541 41.6964 41.7568 41.8444 41.4595 41.9924C41.1622 41.9924 40.8649 41.9924 40.5676 41.9924C40.2703 41.8444 40.1216 41.6964 39.973 41.4003C39.6757 41.2523 39.6757 40.9562 39.6757 40.5121ZM41.4595 26.5974V39.3279L42.6486 37.8476C42.9459 37.5515 43.2432 37.2555 43.6892 37.1075C43.9865 36.9594 44.4324 36.8114 44.7297 36.8114H67.3243C67.473 36.8114 67.7703 36.8114 67.7703 36.6634C67.9189 36.5153 68.0676 36.3673 68.0676 36.0713V26.5974C68.0676 26.4494 67.9189 26.1533 67.7703 26.1533C67.7703 26.0053 67.473 25.8573 67.3243 25.8573H42.2027C42.0541 25.8573 41.9054 26.0053 41.7568 26.1533C41.6081 26.1533 41.4595 26.4494 41.4595 26.5974ZM38.0405 63.7527C36.1081 62.8645 34.9189 61.8283 34.7703 61.6803C34.6216 61.5322 30.7568 58.4236 26.5946 54.4268C24.5135 52.5025 22.2838 50.282 20.3514 48.0616C17.3784 44.805 15.7432 40.9562 15.1486 37.1075C14.5541 32.8146 15.4459 28.8178 17.2297 26.1533C18.1216 24.673 19.3108 23.6368 20.5 23.0447C21.9865 22.1565 23.6216 21.8605 24.8108 21.8605C25.7027 21.8605 26.4459 22.1565 27.0405 22.6006C27.6351 23.1927 28.2297 23.9329 28.3784 24.673L31.0541 32.8146C31.2027 33.5548 31.2027 34.4429 31.0541 35.1831C30.9054 35.9232 30.4595 36.6634 30.0135 37.1075L27.6351 39.4759C27.3378 39.772 27.1892 40.068 27.0405 40.5121C27.0405 40.9562 27.0405 41.2523 27.0405 41.5483C27.4865 42.1404 28.0811 43.1766 28.973 44.3609C29.7162 45.249 30.6081 46.4333 31.9459 47.7655C33.2838 49.0978 34.473 50.282 35.6622 51.1702C37.1486 52.3544 38.4865 53.0946 39.527 53.6867C39.527 53.6867 39.6757 53.6867 39.8243 53.6867C39.8243 53.6867 39.973 53.8347 40.1216 53.8347C40.4189 53.8347 40.7162 53.6867 41.0135 53.5387C41.1622 53.5387 41.4595 53.3906 41.6081 53.2426L44.2838 50.7261C44.5811 50.4301 45.027 50.134 45.473 49.986C46.0676 49.6899 46.5135 49.6899 47.1081 49.6899C47.4054 49.6899 47.5541 49.6899 47.8513 49.6899C48.1486 49.6899 48.2973 49.8379 48.5946 49.986L56.9189 53.5387C57.5135 53.9827 58.2568 54.5749 58.5541 55.315C58.8514 56.0552 59 56.7953 58.7027 57.5354C58.2568 59.1638 57.0676 61.3842 54.6892 63.1605C53.0541 64.3448 50.973 65.381 48 65.677C47.7027 65.677 47.2568 65.8251 46.9595 65.8251C46.6622 65.8251 46.3649 65.8251 46.0676 65.8251C42.7973 65.8251 39.973 64.7889 38.0405 63.7527ZM21.5405 24.8211C20.5 25.2651 19.6081 26.0053 18.8649 27.1895C17.3784 29.558 16.6351 33.1107 17.2297 36.9594C17.6757 40.3641 19.1622 43.9168 21.8378 46.7293C27.4865 52.9465 35.8108 60.0519 36.1081 60.2C36.1081 60.2 37.1486 61.0881 38.9324 61.9763C40.7162 62.8645 43.0946 63.7527 46.0676 63.7527C46.3649 63.7527 46.6622 63.7527 46.8108 63.7527C47.1081 63.7527 47.4054 63.7527 47.7027 63.7527C50.2297 63.4566 52.1622 62.5684 53.5 61.5322C55.4324 60.0519 56.3243 58.2756 56.7703 56.9433C56.9189 56.6473 56.9189 56.3512 56.7703 56.0552C56.6216 55.7591 56.3243 55.6111 56.027 55.463L47.7027 51.7623C47.7027 51.7623 47.5541 51.7623 47.4054 51.6143C47.4054 51.6143 47.2568 51.6143 47.1081 51.6143C46.8108 51.6143 46.5135 51.7623 46.2162 51.7623C46.0676 51.9103 45.7703 52.0584 45.6216 52.2064L43.0946 54.7229C42.6486 55.019 42.2027 55.315 41.7568 55.463C41.1622 55.6111 40.5676 55.7591 40.1216 55.7591C39.8243 55.7591 39.527 55.7591 39.3784 55.7591C39.0811 55.6111 38.7838 55.6111 38.6351 55.463C37.5946 54.8709 36.1081 54.1308 34.473 52.7985C33.2838 51.9103 31.7973 50.5781 30.4595 49.0978C28.973 47.4695 27.7838 46.1372 27.0405 45.101C26.1486 43.9168 25.7027 43.1766 25.2568 42.4365C24.9595 41.8444 24.9595 40.9562 25.1081 40.2161C25.2568 39.3279 25.7027 38.5877 26.1486 37.9956L28.527 35.7752C28.8243 35.4791 28.973 35.035 29.1216 34.739C29.1216 34.2949 29.1216 33.8508 29.1216 33.4067L26.4459 25.2651C26.2973 24.8211 26.1486 24.525 25.8514 24.2289C25.5541 24.0809 25.2568 23.9329 24.9595 23.9329C23.9189 23.9329 22.7297 24.0809 21.5405 24.8211ZM53.3514 27.9297L53.5 27.7816C53.6487 27.7816 53.7973 27.7816 54.0946 27.7816C54.2432 27.7816 54.3919 27.7816 54.5405 27.7816C54.6892 27.7816 54.6892 27.9297 54.8378 27.9297C54.8378 28.0777 54.8378 28.2257 54.8378 28.2257C54.8378 28.3737 54.8378 28.3737 54.8378 28.5218V33.9988C54.8378 34.1469 54.8378 34.2949 54.8378 34.4429C54.6892 34.591 54.6892 34.739 54.5405 34.739C54.3919 34.739 54.2432 34.739 54.0946 34.739C53.9459 34.739 53.7973 34.739 53.6487 34.739C53.5 34.739 53.3514 34.591 53.3514 34.591L53.2027 34.4429C53.2027 34.2949 53.2027 34.1469 53.2027 33.8508V32.8146H50.527C50.0811 32.8146 49.7838 32.6666 49.7838 32.3705C49.7838 32.2225 49.7838 32.0745 49.7838 31.9264C49.7838 31.7784 49.7838 31.6304 49.7838 31.6304L50.527 28.3737C50.527 28.2257 50.6757 28.0777 50.6757 28.0777C50.6757 27.9297 50.6757 27.9297 50.8243 27.7816C50.973 27.7816 50.973 27.6336 51.1216 27.6336C51.2703 27.6336 51.4189 27.7816 51.5676 27.7816C52.0135 27.9297 52.3108 28.0777 52.3108 28.3737C52.3108 28.5218 52.3108 28.6698 52.1622 28.8178L51.5676 31.1863H53.2027V28.5218C53.2027 28.3737 53.2027 28.2257 53.2027 28.2257C53.2027 28.0777 53.2027 28.0777 53.3514 27.9297ZM56.9189 34.887C56.9189 35.035 56.9189 35.035 56.9189 35.035C56.7703 35.1831 56.7703 35.1831 56.7703 35.1831C56.6216 35.3311 56.6216 35.3311 56.473 35.3311C56.3243 35.3311 56.1757 35.3311 56.027 35.1831C55.7297 35.035 55.5811 35.035 55.5811 34.887C55.4324 34.887 55.4324 34.739 55.4324 34.739C55.4324 34.591 55.4324 34.4429 55.5811 34.1469L58.7027 27.7816C58.8514 27.4856 58.8514 27.3375 59 27.3375L59.1487 27.1895C59.2973 27.1895 59.4459 27.3375 59.7432 27.4856C60.0405 27.6336 60.1892 27.7816 60.1892 27.9297C60.1892 28.0777 60.1892 28.2257 60.0405 28.3737L56.9189 34.887ZM64.7973 27.7816C65.2432 27.7816 65.5405 27.9297 65.5405 28.0777C65.6892 28.2257 65.6892 28.3737 65.6892 28.6698C65.6892 28.9659 65.5405 29.2619 65.3919 29.558C65.2432 30.0021 65.0946 30.2981 64.7973 30.7422C64.5 31.0383 64.3514 31.4824 64.0541 31.9264C63.4595 32.8146 63.1622 33.5548 63.1622 33.9988C63.1622 34.1469 63.1622 34.2949 63.1622 34.4429V34.591C63.0135 34.739 63.0135 34.739 62.8649 34.739C62.7162 34.739 62.5676 34.739 62.4189 34.739C62.1216 34.739 61.973 34.739 61.8243 34.739C61.8243 34.739 61.6757 34.739 61.6757 34.591C61.527 34.4429 61.527 34.4429 61.527 34.4429C61.527 34.2949 61.527 34.1469 61.527 33.9988C61.527 33.7028 61.527 33.2587 61.6757 32.8146C61.8243 32.3705 61.973 31.9264 62.2703 31.6304C62.4189 31.1863 62.7162 30.8902 62.8649 30.5942C63.0135 30.2981 63.1622 30.1501 63.3108 29.854C63.4595 29.706 63.6081 29.558 63.6081 29.4099H61.3784C61.0811 29.4099 60.9324 29.4099 60.7838 29.4099C60.6351 29.2619 60.6351 29.2619 60.6351 29.1139C60.4865 28.9659 60.4865 28.8178 60.4865 28.5218C60.4865 28.3737 60.4865 28.2257 60.6351 28.0777C60.6351 27.9297 60.6351 27.9297 60.7838 27.7816C60.9324 27.7816 61.0811 27.7816 61.3784 27.7816H64.7973Z" fill="#FF9C00"/>
</g>
<defs>
<clipPath id="clip0_705_2106">
<rect width="55" height="44" fill="white" transform="translate(15 21.8428)"/>
</clipPath>
</defs>
</svg>
