<svg width="85" height="86" viewBox="0 0 85 86" fill="none" xmlns="http://www.w3.org/2000/svg">
<circle cx="42.5" cy="43.3428" r="42.5" fill="#F2F2F2"/>
<g clip-path="url(#clip0_705_2079)">
<path fill-rule="evenodd" clip-rule="evenodd" d="M57.9387 39.4963C59.0965 38.3625 59.8685 37.6066 59.8685 36.0947C59.8685 34.9609 59.0965 33.827 57.9387 33.0711C57.5527 32.6932 56.7808 31.9373 56.7808 31.5593C56.3948 31.1814 56.7808 30.4255 56.7808 29.6695C57.1667 28.5357 57.5527 27.0239 56.7808 26.268C56.0088 25.1341 54.465 25.1341 53.3071 24.7562C52.5351 24.7562 51.7632 24.7562 51.3772 24.3782C50.9913 24.3782 50.6053 23.6223 50.2193 22.8664C49.8334 21.7325 49.4474 20.2207 47.9035 19.8428C47.9035 19.8428 47.5176 19.8428 47.1316 19.8428C46.3597 19.8428 45.2018 20.2207 44.4298 20.9766C43.6579 21.3546 43.2719 21.7325 42.5 21.7325C42.114 21.7325 41.3421 21.3546 40.5702 20.9766C39.7982 20.2207 39.0263 19.8428 37.8684 19.8428C37.8684 19.8428 37.4824 19.8428 37.0965 19.8428C35.9386 20.2207 35.1666 21.7325 34.7807 22.8664C34.3947 23.6223 34.3947 24.3782 34.0088 24.3782C33.6228 24.7562 32.8509 24.7562 32.0789 24.7562C30.5351 25.1341 29.3772 25.1341 28.6052 26.268C27.8333 27.0239 27.8333 28.5357 28.2193 29.6695C28.6052 30.4255 28.6052 31.1814 28.6052 31.5593C28.2193 31.9373 27.8333 32.6932 27.0614 33.0711C26.2894 33.827 25.1315 34.9609 25.1315 36.0947C25.1315 37.6066 26.2894 38.3625 27.0614 39.4963C27.8333 39.8743 28.2193 40.2522 28.6052 40.6302C28.6052 41.0081 28.6052 42.142 28.2193 42.5199C27.8333 44.0317 27.8333 45.1656 28.6052 46.2995C29.3772 47.4333 30.5351 47.4333 32.0789 47.4333L26.6754 63.6853C26.6754 64.0632 26.6754 64.4412 27.0614 64.4412C27.4473 64.8192 27.8333 64.8192 28.2193 64.8192L33.2368 62.5514L36.3245 67.4648C36.7105 67.4648 37.0965 67.8428 37.0965 67.8428C37.4824 67.8428 37.4824 67.8428 37.4824 67.8428C37.8684 67.8428 38.2544 67.4648 38.2544 67.0869L42.5 53.1026L47.1316 67.0869C47.1316 67.4648 47.5176 67.8428 47.9035 67.8428C48.2895 67.8428 48.6755 67.4648 48.6755 67.4648L51.7632 62.5514L57.1667 64.8192C57.5527 64.8192 57.9387 64.8192 57.9387 64.4412C58.3246 64.4412 58.3246 64.0632 58.3246 63.6853L53.3071 47.4333C54.465 47.4333 56.0088 47.4333 56.7808 46.2995C57.5527 45.1656 57.1667 44.0317 56.7808 42.5199C56.7808 42.142 56.3948 41.0081 56.7808 40.6302C56.7808 40.2522 57.5527 39.8743 57.9387 39.4963ZM37.0965 64.4412L34.7807 60.6617C34.3947 60.2837 34.0088 60.2837 33.2368 60.2837L29.3772 62.1735L34.0088 47.8113C34.3947 48.1892 34.3947 48.9451 34.7807 49.701C35.1666 50.8349 35.9386 51.9688 37.0965 52.3467C37.4824 52.7247 37.8684 52.7247 37.8684 52.7247C39.0263 52.7247 39.7982 51.9688 40.5702 51.5908C40.9561 51.5908 40.9561 51.5908 41.3421 51.2129L37.0965 64.4412ZM51.7632 60.2837C51.3772 60.2837 50.9913 60.2837 50.6053 60.6617L48.2895 64.4412L44.0439 51.2129C44.0439 51.5908 44.4298 51.5908 44.4298 51.5908C45.2018 51.9688 46.3597 52.7247 47.1316 52.7247C47.5176 52.7247 47.9035 52.7247 47.9035 52.3467C49.4474 51.9688 49.8334 50.8349 50.2193 49.701C50.6053 48.9451 50.9913 48.1892 51.3772 47.8113L56.0088 62.1735L51.7632 60.2837ZM54.8509 40.2522C54.465 41.0081 54.8509 42.142 54.8509 43.2758C55.2369 44.0317 55.2369 44.7877 55.2369 45.1656C54.8509 45.5436 53.693 45.5436 52.9211 45.5436C52.1492 45.9215 50.9913 45.9215 50.2193 46.2995C49.4474 47.0554 49.0614 47.8113 48.6755 48.9451C48.2895 49.701 47.9035 50.4569 47.5176 50.8349H47.1316C46.7456 50.8349 45.9737 50.4569 45.5877 50.079C44.4298 49.3231 43.6579 48.9451 42.5 48.9451C41.7281 48.9451 40.5702 49.3231 39.7982 50.079C39.0263 50.4569 38.2544 50.8349 37.8684 50.8349C37.4824 50.4569 37.0965 49.701 36.7105 48.9451C36.3245 47.8113 35.9386 47.0554 35.1666 46.2995C34.3947 45.9215 33.2368 45.9215 32.0789 45.5436C31.307 45.5436 30.1491 45.5436 30.1491 45.1656C29.7631 44.7877 30.1491 44.0317 30.1491 43.2758C30.5351 42.142 30.5351 41.0081 30.1491 40.2522C30.1491 39.1184 29.3772 38.3625 28.6052 37.9845C27.8333 37.2286 27.0614 36.8506 27.0614 36.0947C27.0614 35.7168 27.8333 34.9609 28.6052 34.5829C29.3772 33.827 30.1491 33.0711 30.1491 32.3152C30.5351 31.5593 30.5351 30.4255 30.1491 29.2916C30.1491 28.5357 29.7631 27.7798 30.1491 27.4018C30.1491 27.0239 31.307 27.0239 32.0789 26.6459C33.2368 26.6459 34.3947 26.6459 35.1666 25.89C35.9386 25.5121 36.3245 24.3782 36.7105 23.6223C37.0965 22.8664 37.4824 21.7325 37.8684 21.7325C38.2544 21.7325 39.0263 22.1105 39.7982 22.4884C40.5702 22.8664 41.7281 23.6223 42.5 23.6223C43.6579 23.6223 44.4298 22.8664 45.5877 22.4884C45.9737 22.1105 46.7456 21.7325 47.1316 21.7325H47.5176C47.9035 21.7325 48.2895 22.8664 48.6755 23.6223C49.0614 24.3782 49.4474 25.5121 50.2193 25.89C50.9913 26.6459 52.1492 26.6459 52.9211 26.6459C53.693 27.0239 54.8509 27.0239 55.2369 27.4018C55.2369 27.7798 55.2369 28.5357 54.8509 29.2916C54.8509 30.4255 54.465 31.5593 54.8509 32.3152C55.2369 33.0711 56.0088 33.827 56.7808 34.5829C57.5527 34.9609 57.9387 35.7168 57.9387 36.0947C57.9387 36.8506 57.5527 37.2286 56.7808 37.9845C56.0088 38.3625 55.2369 39.1184 54.8509 40.2522Z" fill="#FF9C00"/>
<path fill-rule="evenodd" clip-rule="evenodd" d="M42.5 25.5121C36.3245 25.5121 31.6929 30.4255 31.6929 36.0948C31.6929 42.142 36.3245 47.0554 42.5 47.0554C48.6754 47.0554 53.693 42.142 53.693 36.0948C53.693 30.4255 48.6754 25.5121 42.5 25.5121ZM42.5 45.1656C37.4824 45.1656 33.6228 41.0081 33.6228 36.0948C33.6228 31.1814 37.4824 27.4018 42.5 27.4018C47.5175 27.4018 51.7632 31.1814 51.7632 36.0948C51.7632 41.0081 47.5175 45.1656 42.5 45.1656Z" fill="#FF9C00"/>
<path fill-rule="evenodd" clip-rule="evenodd" d="M42.5 28.5356C38.2544 28.5356 34.7807 31.9372 34.7807 36.0947C34.7807 36.8506 35.1667 37.2286 35.9386 37.2286C36.3246 37.2286 36.7105 36.8506 36.7105 36.0947C36.7105 33.0711 39.4123 30.4254 42.5 30.4254C43.272 30.4254 43.6579 30.0475 43.6579 29.6695C43.6579 29.2916 43.272 28.5356 42.5 28.5356Z" fill="#FF9C00"/>
</g>
<defs>
<clipPath id="clip0_705_2079">
<rect width="35" height="48" fill="white" transform="translate(25 19.8428)"/>
</clipPath>
</defs>
</svg>
