<svg width="85" height="86" viewBox="0 0 85 86" fill="none" xmlns="http://www.w3.org/2000/svg">
<circle cx="42.5" cy="43.3428" r="42.5" fill="#F2F2F2"/>
<g clip-path="url(#clip0_705_2117)">
<path d="M65.638 41.0676H67.1676C67.9324 41.0676 68.6207 41.3717 69.156 41.9039C69.6914 42.3601 69.9973 43.0444 69.9973 43.8048V50.5717C69.9973 51.332 69.6914 52.0163 69.156 52.5486C68.6971 53.0048 67.9324 53.3089 67.244 53.3089H65.638V61.3684C65.638 62.8891 65.0261 64.2576 64.0319 65.2461C63.0377 66.2345 61.6611 66.8428 60.1315 66.8428H19.5976C18.6033 66.8428 17.6856 66.3866 17.0738 65.7783C16.3854 65.094 16.0031 64.1816 16.0031 63.1932V25.2527V25.1767C16.0031 24.0362 16.5384 22.8957 17.3032 22.1353C18.1445 21.299 19.2152 20.8428 20.4388 20.8428H55.0839C56.0781 20.8428 56.9958 21.2229 57.6077 21.9072C58.296 22.5155 58.6784 23.4279 58.6784 24.4163V27.6097H60.1315C61.6611 27.6097 63.0377 28.218 64.0319 29.2064C65.0261 30.1948 65.638 31.5634 65.638 33.0841V41.0676ZM55.0839 22.9717H20.4388C19.827 22.9717 19.2152 23.1998 18.8328 23.656C18.3739 24.0362 18.1445 24.6444 18.1445 25.2527C18.1445 25.937 18.3739 26.4692 18.8328 26.9254C19.2152 27.3056 19.827 27.6097 20.4388 27.6097H56.537V24.4163C56.537 24.0362 56.384 23.656 56.0781 23.4279C55.8487 23.1238 55.4663 22.9717 55.0839 22.9717ZM62.5023 63.7254C63.1142 63.1172 63.4966 62.2808 63.4966 61.3684V53.3089H54.0896C53.3248 53.3089 52.6365 53.0048 52.1012 52.5486C51.5658 52.0163 51.2599 51.332 51.2599 50.5717V43.8048C51.2599 43.0444 51.5658 42.3601 52.1012 41.9039C52.6365 41.3717 53.3248 41.0676 54.0896 41.0676H63.4966V33.0841C63.4966 32.1717 63.1142 31.3353 62.5023 30.7271C61.8905 30.1188 61.0492 29.7386 60.1315 29.7386H20.4388C20.1329 29.7386 19.827 29.6626 19.4446 29.5866C19.1387 29.5105 18.8328 29.4345 18.5269 29.2824L18.1445 29.0543V63.1932C18.1445 63.6494 18.2974 63.9535 18.5269 64.2576C18.8328 64.4857 19.2152 64.7138 19.5976 64.7138H60.1315C61.0492 64.7138 61.8905 64.3337 62.5023 63.7254ZM67.6264 51.0279C67.7794 50.8758 67.8559 50.7238 67.8559 50.5717V43.8048C67.8559 43.6527 67.7794 43.5006 67.6264 43.3486C67.55 43.2725 67.397 43.1965 67.1676 43.1965H54.0896C53.8602 43.1965 53.7072 43.2725 53.6308 43.3486C53.4778 43.5006 53.4013 43.6527 53.4013 43.8048V50.5717C53.4013 50.7238 53.4778 50.8758 53.6308 51.0279C53.7072 51.1039 53.8602 51.18 54.0896 51.18H67.1676C67.397 51.18 67.55 51.1039 67.6264 51.0279Z" fill="#FF9C00"/>
</g>
<defs>
<clipPath id="clip0_705_2117">
<rect width="54" height="46" fill="white" transform="translate(16 20.8428)"/>
</clipPath>
</defs>
</svg>
