<svg width="85" height="86" viewBox="0 0 85 86" fill="none" xmlns="http://www.w3.org/2000/svg">
<circle cx="42.5" cy="43.3428" r="42.5" fill="#F2F2F2"/>
<g clip-path="url(#clip0_705_2095)">
<path d="M26.9018 50.4719C28.9127 50.4719 30.7132 51.3005 32.046 52.6263C33.145 53.739 33.8932 55.2068 34.1037 56.8167H52.9969C53.1606 56.8167 53.3242 56.7456 53.4178 56.6509C53.5347 56.5326 53.5814 56.3905 53.5814 56.2248V24.5009C53.5814 24.3352 53.5347 24.1695 53.4178 24.0748C53.3242 23.9564 53.1606 23.9091 52.9969 23.9091H17.6189C17.4552 23.9091 17.3149 23.9564 17.198 24.0748C17.0811 24.1695 17.0343 24.3352 17.0343 24.5009V56.2248C17.0343 56.3905 17.0811 56.5326 17.198 56.6509C17.3149 56.7456 17.4552 56.8167 17.6189 56.8167H19.6765C19.9104 55.2068 20.6352 53.739 21.7342 52.6263C23.067 51.3005 24.8909 50.4719 26.9018 50.4719ZM34.1037 58.8764C33.8932 60.5099 33.145 61.954 32.046 63.0667C30.7366 64.3925 28.9127 65.2211 26.9018 65.2211C24.8909 65.2211 23.067 64.3925 21.7342 63.0667C20.6586 61.954 19.9104 60.5099 19.6765 58.8764H17.6189C16.894 58.8764 16.2393 58.5686 15.7716 58.0951C15.304 57.6216 15 56.9587 15 56.2248V24.5009C15 23.767 15.304 23.1041 15.7716 22.6306C16.2393 22.1571 16.894 21.8494 17.6189 21.8494H52.9969C53.7217 21.8494 54.3765 22.1571 54.8441 22.6306C55.3118 23.1041 55.6157 23.767 55.6157 24.5009V26.2055H63.332L63.6126 26.2528C67.1434 27.2472 69.9026 29.3068 71.82 32.5029C73.7139 35.6279 74.7662 39.8183 74.9766 45.1214V45.1688V55.846C75.0701 56.8403 74.7896 57.5506 74.205 58.0714C73.6906 58.5449 72.9891 58.7817 72.1707 58.8764H72.0772H71.1886C70.9548 60.5099 70.2065 61.954 69.1076 63.0667C67.7981 64.3925 65.9743 65.2211 63.9634 65.2211C61.9525 65.2211 60.1286 64.3925 58.8192 63.0667C57.7202 61.954 56.9719 60.5099 56.7381 58.8764H54.6571H53.6516V58.7817C53.4412 58.8527 53.2307 58.8764 52.9969 58.8764H34.1037ZM71.1886 56.8167H72.0304C72.4045 56.7693 72.7085 56.6983 72.8488 56.5562C72.9423 56.4615 72.9891 56.2958 72.9657 55.9881L72.9423 55.8697V45.1688C72.7553 40.2445 71.7966 36.3855 70.113 33.5683C68.4762 30.8694 66.1847 29.1174 63.2151 28.2652H55.6859V56.8167H56.7381C56.9719 55.2068 57.7202 53.739 58.8192 52.6263C60.1286 51.3005 61.9525 50.4719 63.9634 50.4719C65.9743 50.4719 67.7981 51.3005 69.1076 52.6263C70.2065 53.739 70.9548 55.2068 71.1886 56.8167ZM67.6812 54.0704C66.7459 53.1234 65.4131 52.5079 63.9634 52.5079C62.5136 52.5079 61.1808 53.1234 60.2455 54.0704C59.2868 55.0411 58.7023 56.3668 58.7023 57.8583C58.7023 59.3262 59.2868 60.6519 60.2455 61.6226C61.2042 62.5933 62.5136 63.1851 63.9634 63.1851C65.4131 63.1851 66.7459 62.5933 67.6812 61.6226C68.6399 60.6519 69.2245 59.3262 69.2245 57.8583C69.2245 56.3668 68.6399 55.0411 67.6812 54.0704ZM30.6196 54.0704C29.6609 53.1234 28.3515 52.5079 26.9018 52.5079C25.4287 52.5079 24.1193 53.1234 23.1606 54.0704C22.2253 55.0411 21.6407 56.3668 21.6407 57.8583C21.6407 59.3262 22.2253 60.6519 23.1606 61.6226C24.1193 62.5933 25.4287 63.1851 26.9018 63.1851C28.3515 63.1851 29.6609 62.5933 30.6196 61.6226C31.5783 60.6519 32.1629 59.3262 32.1629 57.8583C32.1629 56.3668 31.5783 55.0411 30.6196 54.0704Z" fill="#FF9C00"/>
</g>
<defs>
<clipPath id="clip0_705_2095">
<rect width="60" height="43.3846" fill="white" transform="translate(15 21.8428)"/>
</clipPath>
</defs>
</svg>
